<svg id="Layer_1" enable-background="new 0 0 512 512" height="512" viewBox="0 0 512 512" width="512" xmlns="http://www.w3.org/2000/svg"><g><g><g><g><g><g id="XMLID_1417_"><g id="XMLID_1418_"><g id="XMLID_1419_"><g id="XMLID_1420_"><g id="XMLID_1462_"><g id="XMLID_1466_"><g id="XMLID_1467_"><g id="XMLID_1468_"><g id="XMLID_1469_"><g id="XMLID_1470_"><g id="XMLID_1471_"><g id="XMLID_1472_"><g id="XMLID_1473_"><g id="XMLID_1474_"><g id="XMLID_1920_"><circle cx="256" cy="256" fill="#00337a" r="256"/></g></g></g></g></g></g></g></g></g></g></g></g></g></g></g></g></g></g></g><path d="m512 256c0-8.798-.444-17.491-1.31-26.06l-167.47-167.47-143.511 198.458 65.027 65.027 5.647 91.655-84.881 39.04 54.882 54.882c5.166.31 10.372.468 15.616.468 141.385 0 256-114.615 256-256z" fill="#002659"/><g><path d="m234.901 274.054h42.203v147.879h-42.203z" fill="#bceaf9"/><path d="m256 274.05h21.1v147.88h-21.1z" fill="#005edf"/><g><path d="m326.502 456.65h-141c0-21.709 17.598-39.307 39.307-39.307h62.386c21.709 0 39.307 17.598 39.307 39.307z" fill="#fff"/></g><g><g><path d="m326.5 456.65h-70.5v-39.31h31.19c21.71 0 39.31 17.6 39.31 39.31z" fill="#e7f9fb"/></g></g><path d="m343.221 62.466v109.529c0 48.176-87.221 81.725-87.221 81.725s-87.221-33.549-87.221-81.725v-109.529z" fill="#fff"/><path d="m343.22 62.47v109.53c0 48.17-87.22 81.72-87.22 81.72v-191.25z" fill="#e7f9fb"/><path d="m343.221 171.995v22.308c0 48.176-39.045 87.221-87.221 87.221-48.164 0-87.221-39.045-87.221-87.221v-22.308z" fill="#ec3d93"/><path d="m343.22 172v22.3c0 40.9-28.14 75.22-66.12 84.64-6.75 1.69-13.82 2.58-21.1 2.58v-109.52z" fill="#a733c1"/></g></g></svg>