<svg id="Layer_1" height="512" width="512" xmlns="http://www.w3.org/2000/svg"><g id="XMLID_1417_"><g id="XMLID_1418_"><g id="XMLID_1419_"><g id="XMLID_1420_"><g id="XMLID_1462_"><g id="XMLID_1466_"><g id="XMLID_1467_"><g id="XMLID_1468_"><g id="XMLID_1469_"><g id="XMLID_1470_"><g id="XMLID_1471_"><g id="XMLID_1472_"><g id="XMLID_1473_"><g id="XMLID_1474_"><circle cx="256" cy="256" fill="#00337a" r="256" id="XMLID_1920_"/></g></g></g></g></g></g></g></g></g></g></g></g></g></g><path d="M512 256c0-8.798-.444-17.491-1.31-26.06L343.22 62.47 199.709 260.928l65.027 65.027 5.647 91.655-84.881 39.04 54.882 54.882c5.166.31 10.372.468 15.616.468 141.385 0 256-114.615 256-256z" fill="#002659"/><path d="M234.901 274.054h42.203v147.879h-42.203z" fill="#bceaf9"/><path d="M256 274.05h21.1v147.88H256z" fill="#005edf"/><path d="M326.502 456.65h-141c0-21.709 17.598-39.307 39.307-39.307h62.386c21.709 0 39.307 17.598 39.307 39.307z" fill="#fff"/><path d="M326.5 456.65H256v-39.31h31.19c21.71 0 39.31 17.6 39.31 39.31z" fill="#e7f9fb"/><path d="M343.221 62.466v109.529c0 48.176-87.221 81.725-87.221 81.725s-87.221-33.549-87.221-81.725V62.466z" fill="#fff"/><path d="M343.22 62.47V172c0 48.17-87.22 81.72-87.22 81.72V62.47z" fill="#e7f9fb"/><path d="M343.221 171.995v22.308c0 48.176-39.045 87.221-87.221 87.221-48.164 0-87.221-39.045-87.221-87.221v-22.308z" fill="#ec3d93"/><path d="M343.22 172v22.3c0 40.9-28.14 75.22-66.12 84.64a86.789 86.789 0 01-21.1 2.58V172z" fill="#a733c1"/></svg>